<svg viewBox="0 0 52 53" fill="none" xmlns="http://www.w3.org/2000/svg">
<path d="M25.9425 52.0384C40.2702 52.0384 51.8851 40.4235 51.8851 26.0959C51.8851 11.7682 40.2702 0.15332 25.9425 0.15332C11.6149 0.15332 0 11.7682 0 26.0959C0 40.4235 11.6149 52.0384 25.9425 52.0384Z" fill="#BE264C"/>
<path d="M38.5871 15.5655C38.4718 15.258 38.3565 15.1811 38.2028 15.1427C37.78 14.989 37.1267 15.2196 37.1267 15.2196C37.1267 15.2196 12.8752 23.9439 11.4916 24.9048C11.1841 25.0969 11.1072 25.2507 11.0304 25.366C10.7998 26.0578 11.53 26.3652 11.53 26.3652L17.7947 28.4022C17.7947 28.4022 18.0253 28.4406 18.1021 28.4022C19.5242 27.5182 32.3993 19.3704 33.1296 19.1013C33.2449 19.0629 33.3218 19.1013 33.3218 19.1782C33.0143 20.2159 21.8302 30.1701 21.8302 30.1701C21.8302 30.1701 21.7917 30.2086 21.7533 30.2854L21.1768 36.4732C21.1768 36.4732 20.9462 38.3565 22.8294 36.4732C24.1746 35.1281 25.4813 34.0135 26.0963 33.4754C28.2485 34.9743 30.5545 36.5885 31.5538 37.4725C32.0534 37.8953 32.4762 37.9721 32.8221 37.9721C33.7829 37.9337 34.052 36.896 34.052 36.896C34.052 36.896 38.4718 19.1013 38.6256 16.7185C38.6256 16.4879 38.664 16.3341 38.664 16.1804C38.6256 15.8729 38.6256 15.6423 38.5871 15.5655Z" fill="white"/>
</svg>
